<?xml version="1.0" standalone="no"?>
<!DOCTYPE svg PUBLIC "-//W3C//DTD SVG 20010904//EN"
 "http://www.w3.org/TR/2001/REC-SVG-20010904/DTD/svg10.dtd">
<svg version="1.0" xmlns="http://www.w3.org/2000/svg"
 width="33.000000pt" height="28.000000pt" viewBox="0 0 33.000000 28.000000"
 preserveAspectRatio="xMidYMid meet">

<g transform="translate(0.000000,28.000000) scale(0.100000,-0.100000)"
fill="#000000" stroke="none">
<path d="M5 270 c-4 -6 6 -10 22 -10 28 0 29 -2 45 -82 9 -46 15 -102 12 -125
-5 -39 -3 -43 17 -43 17 0 20 5 17 25 -5 25 -5 25 75 25 68 0 78 -2 67 -15
-13 -16 -6 -35 15 -35 21 0 28 19 15 35 -10 11 -10 15 -1 15 7 0 9 5 6 10 -3
6 -46 10 -96 10 -69 0 -89 3 -89 14 0 15 28 22 138 32 l72 7 0 58 0 59 -125 0
c-104 0 -125 2 -125 15 0 17 -55 21 -65 5z"/>
</g>
</svg>
