<?xml version="1.0" standalone="no"?>
<!DOCTYPE svg PUBLIC "-//W3C//DTD SVG 20010904//EN"
 "http://www.w3.org/TR/2001/REC-SVG-20010904/DTD/svg10.dtd">
<svg version="1.0" xmlns="http://www.w3.org/2000/svg"
 width="225.000000pt" height="54.000000pt" viewBox="0 0 225.000000 54.000000"
 preserveAspectRatio="xMidYMid meet">

<g transform="translate(0.000000,54.000000) scale(0.100000,-0.100000)"
fill="#000000" stroke="none">
<path d="M490 270 l0 -150 25 0 c14 0 28 -1 33 -2 4 -2 9 30 12 71 l5 75 46
-74 c45 -74 49 -77 99 -71 6 1 10 58 10 151 l0 150 -35 0 -35 0 0 -77 c-1 -75
-1 -77 -18 -56 -9 11 -33 46 -51 77 -29 46 -40 56 -63 56 l-28 0 0 -150z"/>
<path d="M801 274 c-38 -105 -50 -148 -42 -154 20 -12 60 1 66 21 9 28 101 28
110 0 6 -18 17 -20 151 -23 l144 -3 0 32 0 32 -60 3 -60 3 60 90 c37 55 60
101 60 118 l0 27 -100 0 -100 0 0 -30 c0 -29 1 -30 48 -30 27 0 51 -3 54 -6 4
-3 -20 -47 -53 -97 -33 -51 -57 -97 -55 -104 3 -7 1 -15 -3 -18 -5 -2 -32 61
-61 140 -50 138 -54 145 -80 145 -25 0 -29 -7 -79 -146z m108 -46 c1 -5 -10
-8 -24 -8 -28 0 -31 13 -14 57 l11 28 13 -35 c8 -19 14 -38 14 -42z"/>
<path d="M1292 277 c-29 -78 -52 -147 -52 -153 0 -19 69 -3 75 17 9 29 101 28
110 -1 3 -11 9 -20 13 -21 41 -5 62 -3 62 6 0 5 -23 74 -52 152 -48 136 -52
143 -78 143 -26 0 -30 -7 -78 -143z m107 -49 c1 -5 -12 -8 -29 -8 -19 0 -28 4
-25 13 2 6 10 26 16 42 l11 30 13 -35 c8 -19 14 -38 14 -42z"/>
<path d="M1530 270 c0 -126 2 -150 15 -151 52 -5 50 -6 53 54 4 75 24 76 58 2
25 -53 27 -55 65 -55 21 0 39 2 39 5 0 2 -12 29 -27 60 l-27 55 22 23 c24 25
29 75 12 108 -18 33 -64 49 -140 49 l-70 0 0 -150z m142 72 c21 -21 4 -47 -35
-50 -35 -3 -37 -2 -37 26 0 16 3 31 6 34 8 9 54 2 66 -10z"/>
<path d="M1802 268 l3 -153 95 0 95 1 3 32 3 32 -65 0 -66 0 0 30 c0 30 1 30
55 30 54 0 55 0 55 30 0 30 -1 30 -55 30 -54 0 -55 0 -55 30 l0 30 65 0 65 0
0 30 0 30 -100 0 -101 0 3 -152z"/>
<path d="M2030 390 c0 -28 3 -30 35 -30 21 0 35 -5 36 -12 0 -7 0 -61 -1 -120
-1 -114 3 -122 55 -114 19 3 20 11 22 122 l1 119 36 3 c32 3 36 6 36 33 l0 29
-110 0 -110 0 0 -30z"/>
<path d="M2010 69 c0 -34 2 -60 4 -58 9 9 13 110 5 115 -5 3 -9 -23 -9 -57z"/>
<path d="M1834 87 c-3 -9 -4 -28 -2 -44 3 -24 7 -28 33 -28 28 0 30 2 30 40 0
36 -3 40 -28 43 -17 2 -29 -2 -33 -11z m51 -16 c8 -26 -5 -53 -24 -49 -29 6
-27 68 3 68 8 0 17 -8 21 -19z"/>
<path d="M1920 53 c0 -29 4 -42 11 -37 6 3 9 14 6 24 -5 19 9 50 23 50 6 0 10
-18 10 -40 0 -22 5 -40 11 -40 6 0 9 17 7 43 -3 40 -5 42 -35 43 -32 1 -33 0
-33 -43z"/>
<path d="M2040 56 c0 -27 2 -47 4 -45 10 10 13 67 5 80 -6 9 -9 -3 -9 -35z"/>
<path d="M2080 53 c0 -29 4 -42 11 -37 6 3 9 14 6 24 -5 19 9 50 23 50 6 0 10
-18 10 -40 0 -22 5 -40 11 -40 6 0 9 17 7 43 -3 40 -5 42 -35 43 -32 1 -33 0
-33 -43z"/>
<path d="M2182 91 c-8 -5 -12 -22 -10 -42 2 -27 8 -35 27 -37 13 -2 28 1 34 7
7 7 2 10 -18 8 -15 -1 -30 4 -32 11 -3 8 6 12 26 12 32 0 41 16 19 38 -14 14
-28 15 -46 3z m42 -16 c4 -11 -1 -15 -19 -15 -18 0 -23 4 -19 15 4 8 12 15 19
15 7 0 15 -7 19 -15z"/>
</g>
</svg>
